# xmcd
#
# Track frame offsets:
#  150
#  11325
#  21000
#  30600
#  39750
#  46575
#  60000
#  70575
#  87975
#  94875
#  103725
#  111675
#  123825
#
# Disc length: 1810 seconds
#
# Revision: 0
# Processed by: cddbd v1.5.1PL2 Copyright (c) Steve Scherf et al.
# Submitted via: Collectorz.com_Music_Collector 6.11
#
DISCID=9207100d
DTITLE=Winchester, Jesse - Third Down, 110 T Go/Nothing But A Breeze (2 CD Set) [CD1)
DYEAR=1989
DGENRE=Country
TTITLE0=Isn't That So?
TTITLE1=Dangerous Fun
TTITLE2=Full Moon
TTITLE3=North Star
TTITLE4=Do It
TTITLE5=Lullaby For The First Born
TTITLE6=Midnight Bus
TTITLE7=Glory To The Day
TTITLE8=The Easy Way
TTITLE9=Do La Lay
TTITLE10=God's Own Jukebox
TTITLE11=Silly Heart
TTITLE12=All Of Your Stories
EXTD=
EXTT0=
EXTT1=
EXTT2=
EXTT3=
EXTT4=
EXTT5=
EXTT6=
EXTT7=
EXTT8=
EXTT9=
EXTT10=
EXTT11=
EXTT12=
PLAYORDER=
